<?xml version="1.0" encoding="UTF-8"?>
<svg id="Layer_1" xmlns="http://www.w3.org/2000/svg" version="1.1" xmlns:xlink="http://www.w3.org/1999/xlink" viewBox="0 0 100 100">
  <!-- Generator: Adobe Illustrator 29.5.0, SVG Export Plug-In . SVG Version: 2.1.0 Build 137)  -->
  <defs>
    <style>
      .st0 {
        fill: #fff;
      }

      .st1 {
        display: none;
        opacity: .3;
      }

      .st2 {
        fill: url(#linear-gradient);
      }
    </style>
    <linearGradient id="linear-gradient" x1="4.4" y1="95.6" x2="95.6" y2="4.4" gradientUnits="userSpaceOnUse">
      <stop offset="0" stop-color="#6b68ec"/>
      <stop offset="1" stop-color="#9455dd"/>
    </linearGradient>
  </defs>
  <rect class="st2" y="0" width="100" height="100" rx="15" ry="15"/>
  <g class="st1">
    <path class="st0" d="M69.9,34.1c2.1-.3,3.3.2,4.8,1.5,5.1,4.6,10.4,10,15.3,14.9s4,3.7,2.8,7-.8,1.3-1.6,2.1c-3.9,4.2-8.2,8.1-12.2,12.1-3.4,3.3-6.4,8.5-11.3,4.2-6-5.3-11.4-11.4-17.3-16.8-1.1-1.3-1.6-2.8-1.2-4.5s1.4-2.5,2.5-3.7c3.5-3.7,7.3-7.1,10.9-10.7,1.6-1.6,5.2-5.9,7.3-6.3Z"/>
    <g>
      <path class="st0" d="M29.9,40.9v11.8l.2.3h16.4c-.3.7-.4,1.5-.3,2.4h-16.4v5.9h-2.4v-20.3h2.4Z"/>
      <g>
        <path class="st0" d="M25.6,63.8c4.5,0,8.9,0,13.3.1s4.4-.3,6,0,2.4,2.1,2.5,3.7c.2,3.1-.2,6.5-.2,9.6s1.1,7.2-3.1,7.8h-27.2c-2-.3-3.1-1.7-3.3-3.8-.3-3.7-.3-9.8,0-13.4s.9-3.6,2.8-3.9,6.5-.1,9.1-.1Z"/>
        <path class="st0" d="M63.8,74.8l1.8,1.9c.1.3-1.1.6-1.2.6h-14.9v-2.5h14.2Z"/>
      </g>
      <g>
        <path class="st0" d="M49.6,25h16.9c1.7,0,5,2.6,5,4.5v2.4h-2.2c.1-1.3,0-2.8-1.1-3.6s-1.4-.8-1.5-.8h-17.1v8.5c0,0-.3.9-.4,1.1-.5,1.1-1.6,1.8-2.7,1.9H13.9c-1.2-.5-2.1-1.2-2.5-2.5,0-3.6,0-7.1,0-10.7s-.3-6.1,0-9.1,1.5-3,3.1-3.2h31.6c1.4.1,2.7.6,3.2,2.1s.3.9.3,1v8.5ZM23.2,22.3h5.3c.6-.6.7-2.9-.2-3.2h-7.8c-1.3.1-.9,3-.9,4.1,0,2,.2,4.4.2,6.4s-.6,2.5.2,3.4h8.4c.6-.3.5-3,0-3h-5.3v-2.5h4.5c.7,0,.8-3,.2-3h-4.7v-2.2ZM34.2,32.4c.2-1.1-.2-3,0-4.3.4,0,1.2-.2,1.5.2.4.5,1.5,3.2,2,4s.3.5.5.6c.3.1,2.4.2,2.8,0s.5-.3.6-.6c0-.6-2.4-4-2.7-5,3.3-1.5,3-6.6-.4-7.9s-5.1-.5-6.6-.4-.8,0-.9.8v12.6c.1.6.4.6.9.6.7,0,2.3.2,2.5-.6Z"/>
        <path class="st0" d="M34.2,25.3v-3.4c1.5-.2,4.1.2,3.5,2.4s-.8,1-1,1h-2.5Z"/>
      </g>
    </g>
  </g>
  <g>
    <path class="st0" d="M91.8,59.2l-17,17c-1.9,1.9-5,1.9-6.9,0l-17-17c-1.9-1.9-1.9-5,0-6.9l17-17c1.9-1.9,5-1.9,6.9,0l17,17c1.9,1.9,1.9,5,0,6.9Z"/>
    <path class="st0" d="M63.7,74.6l2.8,2.8c-.5.1-1.1.2-1.6.2h-13.7v-3h12.5Z"/>
    <rect class="st0" x="13.9" y="64.2" width="34" height="21.4" rx="3.6" ry="3.6"/>
    <path class="st0" d="M45.3,13.4H15.5c-2.4,0-4.3,1.9-4.3,4.3v16.9c0,2.4,1.9,4.3,4.3,4.3h29.8c2.4,0,4.3-1.9,4.3-4.3v-16.9c0-2.4-1.9-4.3-4.3-4.3Z"/>
    <path class="st0" d="M64.8,27.6h-12.8v-3h12.8c3.8,0,6.9,3.1,6.9,6.9h0c-1,0-2.1.3-3,.9v-.9c0-2.2-1.8-3.9-3.9-3.9Z"/>
    <path class="st0" d="M30.5,53h17.6c-.5.8-.8,1.8-.9,2.8h-16.8v6.3h-3v-21.6h3v12.5Z"/>
  </g>
</svg>