<?xml version="1.0" encoding="UTF-8"?>
<svg id="Layer_1" data-name="Layer 1" xmlns="http://www.w3.org/2000/svg" xmlns:xlink="http://www.w3.org/1999/xlink" viewBox="0 0 1024 1024">
  <defs>
    <style>
      .cls-1 {
        fill: url(#linear-gradient-2);
      }

      .cls-2 {
        fill: #fff;
      }

      .cls-3 {
        fill: url(#linear-gradient);
      }
    </style>
    <linearGradient id="linear-gradient" x1="221.45" y1="100.84" x2="581.27" y2="460.66" gradientUnits="userSpaceOnUse">
      <stop offset="0" stop-color="#9758f0"/>
      <stop offset="1" stop-color="#5f5dea"/>
    </linearGradient>
    <linearGradient id="linear-gradient-2" x1="506.98" y1="586.75" x2="706.53" y2="786.3" gradientTransform="translate(-306.18 608.94) rotate(-43.67)" xlink:href="#linear-gradient"/>
  </defs>
  <rect width="1024" height="1024" rx="108.21" ry="108.21"/>
  <path class="cls-2" d="M124.04,152.05c-.28,239.95-.56,479.9-.85,719.84-.02,15.48,12.52,28.03,28,28.03h313.43c15.46,0,28-12.54,28-28v-78.73c0-15.46-12.54-28-28-28h-139.52c-15.46,0-28-12.54-28-28v-119.19c0-15.46,12.54-28,28-28h67.21c15.46,0,28-12.54,28-28v-62.6c0-15.46-12.54-28-28-28h-67.21c-15.46,0-28-12.54-28-28v-116.32c0-15.46,12.54-28,28-28h139.52c15.46,0,28-12.54,28-28v-118.99c0-15.46-12.54-28-28-28H152.05c-15.45,0-27.98,12.52-28,27.97Z"/>
  <path class="cls-2" d="M531.34,150.28c-.28,241.13-.57,482.34-.85,723.48-.02,14.5,11.73,26.26,26.24,26.26,32.57,0,65.14,0,97.71,0,14.49,0,26.23-11.74,26.24-26.23v-43.27c0-23.21,27.93-34.99,44.55-18.78l82.9,80.82c4.91,4.78,11.49,7.46,18.34,7.45l47.91-.05c14.51-.02,26.25-11.81,26.21-26.31-.13-42.18-.26-84.35-.38-126.53-.02-7.05-2.88-13.8-7.93-18.72-55.87-54.39-111.74-108.78-167.61-163.18-15.42-15.01-7.19-41.34,14.08-44.64,97.95-15.18,161.4-92.09,161.19-193.99-.24-120.15-92.63-200.84-204.3-202.51h-138.05c-14.48,0-26.22,11.72-26.24,26.2Z"/>
  <rect class="cls-3" x="152.25" y="152.97" width="498.22" height="255.56" rx="29.14" ry="29.14"/>
  <rect class="cls-1" x="468.23" y="548.01" width="277.03" height="277.03" rx="25.73" ry="25.73" transform="translate(641.95 -229.02) rotate(43.67)"/>
</svg>