<?xml version="1.0" encoding="UTF-8"?>
<svg id="Layer_1" xmlns="http://www.w3.org/2000/svg" version="1.1" viewBox="0 0 100 100">
  <!-- Generator: Adobe Illustrator 29.5.0, SVG Export Plug-In . SVG Version: 2.1.0 Build 137)  -->
  <defs>
    <style>
      .st0 {
        fill: #003fcc;
      }

      .st1 {
        stroke-width: 2.5px;
      }

      .st1, .st2, .st3, .st4, .st5 {
        stroke: #fff;
      }

      .st1, .st4, .st5 {
        fill: none;
      }

      .st2 {
        stroke-width: 5px;
      }

      .st2, .st3 {
        fill: #fff;
      }

      .st3 {
        stroke-width: 8px;
      }

      .st4 {
        stroke-width: 4px;
      }

      .st5 {
        stroke-width: 2px;
      }
    </style>
  </defs>
  <rect class="st1" x="15" y="25" width="35" height="20"/>
  <polygon class="st1" points="67.5 35 82.5 50 67.5 65 52.5 50 67.5 35"/>
  <line class="st5" x1="50" y1="35" x2="52.5" y2="50"/>
  <line class="st5" x1="32.5" y1="45" x2="32.5" y2="70"/>
  <ellipse class="st5" cx="32.5" cy="77" rx="15" ry="8"/>
  <rect class="st0" width="100" height="100" rx="15" ry="15"/>
  <rect class="st3" x="14.2" y="15" width="40.8" height="26" rx="2.6" ry="2.6"/>
  <line class="st4" x1="28" y1="42.5" x2="22.7" y2="69"/>
  <ellipse class="st2" cx="22.7" cy="77" rx="15" ry="8"/>
  <line class="st4" x1="35.9" y1="41" x2="55" y2="75.6"/>
  <line class="st4" x1="47.5" y1="41" x2="69.5" y2="55.8"/>
  <ellipse class="st2" cx="63.6" cy="82.4" rx="15" ry="8"/>
  <ellipse class="st2" cx="78.6" cy="57.5" rx="15" ry="8"/>
</svg>