<?xml version="1.0" encoding="UTF-8"?>
<svg id="Layer_1" data-name="Layer 1" xmlns="http://www.w3.org/2000/svg" xmlns:xlink="http://www.w3.org/1999/xlink" viewBox="0 0 100 100">
  <defs>
    <style>
      .cls-1 {
        fill: #fff;
      }

      .cls-2 {
        fill: url(#linear-gradient);
      }
    </style>
    <linearGradient id="linear-gradient" x1="4.39" y1="95.61" x2="95.61" y2="4.39" gradientUnits="userSpaceOnUse">
      <stop offset="0" stop-color="#6b68ec"/>
      <stop offset="1" stop-color="#9455dd"/>
    </linearGradient>
  </defs>
  <rect class="cls-2" width="100" height="100" rx="15" ry="15"/>
  <g>
    <path class="cls-1" d="M91.81,59.21l-17,17c-1.9,1.9-4.98,1.9-6.89,0l-17-17c-1.9-1.9-1.9-4.99,0-6.89l17-17c1.91-1.9,4.99-1.9,6.89,0l17,17c1.91,1.9,1.91,4.99,0,6.89Z"/>
    <path class="cls-1" d="M63.67,74.59l2.8,2.8c-.52.13-1.07.2-1.64.2h-13.68v-3h12.52Z"/>
    <rect class="cls-1" x="13.87" y="64.16" width="33.98" height="21.35" rx="3.6" ry="3.6"/>
    <path class="cls-1" d="M45.31,13.38H15.53c-2.38,0-4.32,1.93-4.32,4.32v16.89c0,2.38,1.93,4.32,4.32,4.32h29.78c2.38,0,4.32-1.93,4.32-4.32v-16.9c0-2.38-1.93-4.31-4.31-4.31ZM28.02,22.47h-3.66c-.55,0-1,.45-1,1h0c0,.55.45,1,1,1h2.58c.55,0,1,.45,1,1v1.06c0,.55-.45,1-1,1h-2.58c-.55,0-1,.45-1,1v.25c0,.55.45,1,1,1h3.66c.55,0,1,.45,1,1v1.28c0,.55-.45,1-1,1h-7.43c-.55,0-1-.45-1-1v-11.72c0-.55.45-1,1-1h7.43c.55,0,1,.45,1,1v1.17c0,.55-.45,1-1,1ZM38.13,33.02c-.42,0-.8-.27-.94-.67l-1.6-4.57h-1.21v4.24c0,.55-.45,1-1,1h-1.85c-.55,0-1-.45-1-1v-11.72c0-.55.45-1,1-1h5.55c1.44,0,2.56.37,3.36,1.11s1.2,1.71,1.2,2.93c0,.79-.15,1.49-.44,2.09-.22.45-.59.85-1.12,1.21-.37.26-.52.74-.36,1.16l1.46,3.86c.25.65-.23,1.35-.93,1.35h-2.11ZM36.15,22.22h-.77c-.55,0-1,.45-1,1v.63c0,.55.45,1,1,1h.64c.49,0,.88-.11,1.17-.33.29-.22.44-.54.44-.97,0-.88-.49-1.32-1.48-1.32Z"/>
    <path class="cls-1" d="M64.83,27.64h-12.79v-3h12.79c3.82,0,6.93,3.11,6.93,6.93v.09c-1.04-.05-2.08.21-3,.77v-.86c0-2.17-1.76-3.93-3.93-3.93Z"/>
    <path class="cls-1" d="M30.52,53h17.61c-.55.85-.84,1.81-.86,2.77h-16.75v6.32h-3v-21.58h3v12.49Z"/>
  </g>
</svg>