<?xml version="1.0" encoding="UTF-8"?>
<svg id="Layer_1" data-name="Layer 1" xmlns="http://www.w3.org/2000/svg" xmlns:xlink="http://www.w3.org/1999/xlink" viewBox="0 0 100 100">
  <defs>
    <style>
      .cls-1 {
        fill: url(#linear-gradient-2);
      }

      .cls-2 {
        fill: url(#linear-gradient-3);
      }

      .cls-3 {
        fill: url(#linear-gradient);
      }
    </style>
    <linearGradient id="linear-gradient" x1="30.08" y1="31.97" x2="41.04" y2="21.02" gradientUnits="userSpaceOnUse">
      <stop offset="0" stop-color="#6b68ec"/>
      <stop offset="1" stop-color="#9455dd"/>
    </linearGradient>
    <linearGradient id="linear-gradient-2" x1="18.82" y1="31.65" x2="29.8" y2="20.68" xlink:href="#linear-gradient"/>
    <linearGradient id="linear-gradient-3" x1="4.39" y1="95.61" x2="95.61" y2="4.39" xlink:href="#linear-gradient"/>
  </defs>
  <path class="cls-3" d="M40.08,26.65c.53-.36.9-.76,1.12-1.21.29-.6.44-1.3.44-2.09,0-1.22-.4-2.19-1.2-2.93s-1.92-1.11-3.36-1.11h-5.54c-.55,0-1,.45-1,1v11.71c0,.55.45,1,1,1h1.84c.55,0,1-.45,1-1v-4.24h1.21l1.6,4.57c.14.4.51.67.94.67h2.11c.7,0,1.18-.7.93-1.35l-1.46-3.86c-.16-.42-.01-.9.37-1.16ZM37.19,24.51c-.29.22-.68.33-1.17.33h-.64c-.55,0-1-.45-1-.99v-.64c0-.54.45-.99,1-.99h.77c.99,0,1.48.44,1.48,1.32,0,.43-.15.75-.44.97Z"/>
  <path class="cls-1" d="M28.02,19.31h-7.42c-.55,0-1,.45-1,1v11.71c0,.55.45,1,1,1h7.42c.55,0,1-.45,1-1v-1.27c0-.55-.45-1-1-1h-3.65c-.55,0-1-.45-1-1v-.24c0-.55.45-1,1-1h2.57c.55,0,1-.45,1-1v-1.05c0-.55-.45-1-1-1h-2.57c-.55,0-1-.45-1-1s.45-.99,1-.99h3.65c.55,0,1-.45,1-1v-1.16c0-.55-.45-1-1-1Z"/>
  <path class="cls-2" d="M85,0H15C6.72,0,0,6.72,0,15v70c0,8.28,6.72,15,15,15h70c8.28,0,15-6.72,15-15V15c0-8.28-6.72-15-15-15ZM52.04,24.64h12.79c3.82,0,6.93,3.11,6.93,6.93v.09c-1.04-.05-2.08.21-3,.77v-.86c0-2.17-1.76-3.93-3.93-3.93h-12.79v-3ZM47.85,81.91c0,1.98-1.61,3.6-3.6,3.6h-26.78c-1.99,0-3.6-1.62-3.6-3.6v-14.15c0-1.99,1.61-3.6,3.6-3.6h26.78c1.99,0,3.6,1.61,3.6,3.6v14.15ZM47.27,55.77h-16.75v6.32h-3v-21.58h3v12.49h17.61c-.55.85-.84,1.81-.86,2.77ZM45.3,38.9H15.53c-2.39,0-4.32-1.93-4.32-4.32v-16.88c0-2.39,1.93-4.32,4.32-4.32h29.78c2.38,0,4.31,1.93,4.31,4.31v16.89c0,2.39-1.93,4.32-4.32,4.32ZM64.83,77.59h-13.68v-3h12.52l2.8,2.8c-.52.13-1.07.2-1.64.2ZM91.81,59.21l-17,17c-1.9,1.9-4.98,1.9-6.89,0l-17-17c-1.9-1.9-1.9-4.99,0-6.89l17-17c1.91-1.9,4.99-1.9,6.89,0l17,17c1.91,1.9,1.91,4.99,0,6.89Z"/>
</svg>